<mxfile host="65bd71144e">
    <diagram name="Detail" id="tHOXZqSeXroHqX4OeFXp">
        <mxGraphModel dx="896" dy="1795" grid="1" gridSize="10" guides="1" tooltips="1" connect="1" arrows="1" fold="1" page="1" pageScale="1" pageWidth="827" pageHeight="1169" math="0" shadow="0">
            <root>
                <mxCell id="uzlvoVt3xgEKSto2-Y47-0"/>
                <mxCell id="uzlvoVt3xgEKSto2-Y47-1" parent="uzlvoVt3xgEKSto2-Y47-0"/>
                <mxCell id="uzlvoVt3xgEKSto2-Y47-4" value="Public subnet" style="points=[[0,0],[0.25,0],[0.5,0],[0.75,0],[1,0],[1,0.25],[1,0.5],[1,0.75],[1,1],[0.75,1],[0.5,1],[0.25,1],[0,1],[0,0.75],[0,0.5],[0,0.25]];outlineConnect=0;gradientColor=none;html=1;whiteSpace=wrap;fontSize=12;fontStyle=0;container=1;pointerEvents=0;collapsible=0;recursiveResize=0;shape=mxgraph.aws4.group;grIcon=mxgraph.aws4.group_security_group;grStroke=0;strokeColor=#248814;fillColor=#E9F3E6;verticalAlign=top;align=left;spacingLeft=30;fontColor=#248814;dashed=0;" vertex="1" parent="uzlvoVt3xgEKSto2-Y47-1">
                    <mxGeometry x="200" y="80" width="240" height="160" as="geometry"/>
                </mxCell>
                <mxCell id="uzlvoVt3xgEKSto2-Y47-5" value="Amazon EC2" style="sketch=0;outlineConnect=0;fontColor=#232F3E;gradientColor=none;strokeColor=#ffffff;fillColor=#232F3E;dashed=0;verticalLabelPosition=middle;verticalAlign=bottom;align=center;html=1;whiteSpace=wrap;fontSize=10;fontStyle=1;spacing=3;shape=mxgraph.aws4.productIcon;prIcon=mxgraph.aws4.ec2;" vertex="1" parent="uzlvoVt3xgEKSto2-Y47-4">
                    <mxGeometry x="80" y="40" width="80" height="100" as="geometry"/>
                </mxCell>
                <mxCell id="uzlvoVt3xgEKSto2-Y47-6" value="Private subnet" style="points=[[0,0],[0.25,0],[0.5,0],[0.75,0],[1,0],[1,0.25],[1,0.5],[1,0.75],[1,1],[0.75,1],[0.5,1],[0.25,1],[0,1],[0,0.75],[0,0.5],[0,0.25]];outlineConnect=0;gradientColor=none;html=1;whiteSpace=wrap;fontSize=12;fontStyle=0;container=1;pointerEvents=0;collapsible=0;recursiveResize=0;shape=mxgraph.aws4.group;grIcon=mxgraph.aws4.group_security_group;grStroke=0;strokeColor=#147EBA;fillColor=#E6F2F8;verticalAlign=top;align=left;spacingLeft=30;fontColor=#147EBA;dashed=0;" vertex="1" parent="uzlvoVt3xgEKSto2-Y47-1">
                    <mxGeometry x="200" y="280" width="240" height="160" as="geometry"/>
                </mxCell>
                <mxCell id="uzlvoVt3xgEKSto2-Y47-7" value="Amazon RDS" style="sketch=0;outlineConnect=0;fontColor=#232F3E;gradientColor=none;strokeColor=#ffffff;fillColor=#232F3E;dashed=0;verticalLabelPosition=middle;verticalAlign=bottom;align=center;html=1;whiteSpace=wrap;fontSize=10;fontStyle=1;spacing=3;shape=mxgraph.aws4.productIcon;prIcon=mxgraph.aws4.rds;" vertex="1" parent="uzlvoVt3xgEKSto2-Y47-6">
                    <mxGeometry x="80" y="40" width="80" height="100" as="geometry"/>
                </mxCell>
                <mxCell id="YHypOJyOhXT8dUaheZxc-0" value="Untitled Layer" parent="uzlvoVt3xgEKSto2-Y47-0"/>
                <mxCell id="YHypOJyOhXT8dUaheZxc-3" value="Public subnet" style="points=[[0,0],[0.25,0],[0.5,0],[0.75,0],[1,0],[1,0.25],[1,0.5],[1,0.75],[1,1],[0.75,1],[0.5,1],[0.25,1],[0,1],[0,0.75],[0,0.5],[0,0.25]];outlineConnect=0;gradientColor=none;html=1;whiteSpace=wrap;fontSize=12;fontStyle=0;container=1;pointerEvents=0;collapsible=0;recursiveResize=0;shape=mxgraph.aws4.group;grIcon=mxgraph.aws4.group_security_group;grStroke=0;strokeColor=#248814;fillColor=#E9F3E6;verticalAlign=top;align=left;spacingLeft=30;fontColor=#248814;dashed=0;" vertex="1" parent="YHypOJyOhXT8dUaheZxc-0">
                    <mxGeometry x="200" y="80" width="240" height="160" as="geometry"/>
                </mxCell>
                <mxCell id="YHypOJyOhXT8dUaheZxc-4" value="Amazon EC2" style="sketch=0;outlineConnect=0;fontColor=#232F3E;gradientColor=none;strokeColor=#ffffff;fillColor=#232F3E;dashed=0;verticalLabelPosition=middle;verticalAlign=bottom;align=center;html=1;whiteSpace=wrap;fontSize=10;fontStyle=1;spacing=3;shape=mxgraph.aws4.productIcon;prIcon=mxgraph.aws4.ec2;" vertex="1" parent="YHypOJyOhXT8dUaheZxc-3">
                    <mxGeometry x="80" y="40" width="80" height="100" as="geometry"/>
                </mxCell>
                <mxCell id="YHypOJyOhXT8dUaheZxc-5" value="Private subnet" style="points=[[0,0],[0.25,0],[0.5,0],[0.75,0],[1,0],[1,0.25],[1,0.5],[1,0.75],[1,1],[0.75,1],[0.5,1],[0.25,1],[0,1],[0,0.75],[0,0.5],[0,0.25]];outlineConnect=0;gradientColor=none;html=1;whiteSpace=wrap;fontSize=12;fontStyle=0;container=1;pointerEvents=0;collapsible=0;recursiveResize=0;shape=mxgraph.aws4.group;grIcon=mxgraph.aws4.group_security_group;grStroke=0;strokeColor=#147EBA;fillColor=#E6F2F8;verticalAlign=top;align=left;spacingLeft=30;fontColor=#147EBA;dashed=0;" vertex="1" parent="YHypOJyOhXT8dUaheZxc-0">
                    <mxGeometry x="200" y="280" width="240" height="160" as="geometry"/>
                </mxCell>
                <mxCell id="YHypOJyOhXT8dUaheZxc-30" value="" style="outlineConnect=0;dashed=0;verticalLabelPosition=bottom;verticalAlign=top;align=center;html=1;shape=mxgraph.aws3.rds_db_instance;fillColor=#2E73B8;gradientColor=none;" vertex="1" parent="YHypOJyOhXT8dUaheZxc-5">
                    <mxGeometry x="95.25" y="47" width="49.5" height="66" as="geometry"/>
                </mxCell>
                <mxCell id="YHypOJyOhXT8dUaheZxc-8" value="Internet&#10;gateway" style="sketch=0;outlineConnect=0;fontColor=#232F3E;gradientColor=none;strokeColor=#232F3E;fillColor=#ffffff;dashed=0;verticalLabelPosition=bottom;verticalAlign=top;align=center;html=1;fontSize=12;fontStyle=0;aspect=fixed;shape=mxgraph.aws4.resourceIcon;resIcon=mxgraph.aws4.internet_gateway;" vertex="1" parent="YHypOJyOhXT8dUaheZxc-0">
                    <mxGeometry x="430.87" y="-90" width="60" height="60" as="geometry"/>
                </mxCell>
                <mxCell id="YHypOJyOhXT8dUaheZxc-9" value="Amazon S3" style="sketch=0;outlineConnect=0;fontColor=#232F3E;gradientColor=none;strokeColor=#ffffff;fillColor=#232F3E;dashed=0;verticalLabelPosition=middle;verticalAlign=bottom;align=center;html=1;whiteSpace=wrap;fontSize=10;fontStyle=1;spacing=3;shape=mxgraph.aws4.productIcon;prIcon=mxgraph.aws4.s3;" vertex="1" parent="YHypOJyOhXT8dUaheZxc-0">
                    <mxGeometry x="920" y="209" width="80" height="100" as="geometry"/>
                </mxCell>
                <mxCell id="YHypOJyOhXT8dUaheZxc-11" value="Amazon Cloudfront" style="sketch=0;outlineConnect=0;fontColor=#232F3E;gradientColor=none;strokeColor=#ffffff;fillColor=#232F3E;dashed=0;verticalLabelPosition=middle;verticalAlign=bottom;align=center;html=1;whiteSpace=wrap;fontSize=10;fontStyle=1;spacing=3;shape=mxgraph.aws4.productIcon;prIcon=mxgraph.aws4.cloudfront;" vertex="1" parent="YHypOJyOhXT8dUaheZxc-0">
                    <mxGeometry x="428.88" y="-350" width="65.45" height="90" as="geometry"/>
                </mxCell>
                <mxCell id="YHypOJyOhXT8dUaheZxc-12" style="edgeStyle=elbowEdgeStyle;html=1;" edge="1" parent="YHypOJyOhXT8dUaheZxc-0" source="YHypOJyOhXT8dUaheZxc-13" target="YHypOJyOhXT8dUaheZxc-9">
                    <mxGeometry relative="1" as="geometry"/>
                </mxCell>
                <mxCell id="YHypOJyOhXT8dUaheZxc-13" value="" style="sketch=0;outlineConnect=0;fontColor=#232F3E;gradientColor=none;fillColor=#4D27AA;strokeColor=none;dashed=0;verticalLabelPosition=bottom;verticalAlign=top;align=center;html=1;fontSize=12;fontStyle=0;aspect=fixed;pointerEvents=1;shape=mxgraph.aws4.endpoints;" vertex="1" parent="YHypOJyOhXT8dUaheZxc-0">
                    <mxGeometry x="810" y="239" width="40" height="40" as="geometry"/>
                </mxCell>
                <mxCell id="YHypOJyOhXT8dUaheZxc-35" style="edgeStyle=none;html=1;exitX=0.5;exitY=1;exitDx=0;exitDy=0;" edge="1" parent="YHypOJyOhXT8dUaheZxc-0" source="YHypOJyOhXT8dUaheZxc-17" target="YHypOJyOhXT8dUaheZxc-27">
                    <mxGeometry relative="1" as="geometry"/>
                </mxCell>
                <mxCell id="YHypOJyOhXT8dUaheZxc-17" value="" style="aspect=fixed;perimeter=ellipsePerimeter;html=1;align=center;shadow=0;dashed=0;spacingTop=3;image;image=img/lib/active_directory/internet_cloud.svg;" vertex="1" parent="YHypOJyOhXT8dUaheZxc-0">
                    <mxGeometry x="413.25" y="-520" width="95.24" height="60" as="geometry"/>
                </mxCell>
                <mxCell id="YHypOJyOhXT8dUaheZxc-18" value="Public subnet" style="points=[[0,0],[0.25,0],[0.5,0],[0.75,0],[1,0],[1,0.25],[1,0.5],[1,0.75],[1,1],[0.75,1],[0.5,1],[0.25,1],[0,1],[0,0.75],[0,0.5],[0,0.25]];outlineConnect=0;gradientColor=none;html=1;whiteSpace=wrap;fontSize=12;fontStyle=0;container=1;pointerEvents=0;collapsible=0;recursiveResize=0;shape=mxgraph.aws4.group;grIcon=mxgraph.aws4.group_security_group;grStroke=0;strokeColor=#248814;fillColor=#E9F3E6;verticalAlign=top;align=left;spacingLeft=30;fontColor=#248814;dashed=0;" vertex="1" parent="YHypOJyOhXT8dUaheZxc-0">
                    <mxGeometry x="480" y="80" width="240" height="160" as="geometry"/>
                </mxCell>
                <mxCell id="YHypOJyOhXT8dUaheZxc-19" value="Amazon EC2" style="sketch=0;outlineConnect=0;fontColor=#232F3E;gradientColor=none;strokeColor=#ffffff;fillColor=#232F3E;dashed=0;verticalLabelPosition=middle;verticalAlign=bottom;align=center;html=1;whiteSpace=wrap;fontSize=10;fontStyle=1;spacing=3;shape=mxgraph.aws4.productIcon;prIcon=mxgraph.aws4.ec2;" vertex="1" parent="YHypOJyOhXT8dUaheZxc-18">
                    <mxGeometry x="80" y="40" width="80" height="100" as="geometry"/>
                </mxCell>
                <mxCell id="YHypOJyOhXT8dUaheZxc-20" value="Private subnet" style="points=[[0,0],[0.25,0],[0.5,0],[0.75,0],[1,0],[1,0.25],[1,0.5],[1,0.75],[1,1],[0.75,1],[0.5,1],[0.25,1],[0,1],[0,0.75],[0,0.5],[0,0.25]];outlineConnect=0;gradientColor=none;html=1;whiteSpace=wrap;fontSize=12;fontStyle=0;container=1;pointerEvents=0;collapsible=0;recursiveResize=0;shape=mxgraph.aws4.group;grIcon=mxgraph.aws4.group_security_group;grStroke=0;strokeColor=#147EBA;fillColor=#E6F2F8;verticalAlign=top;align=left;spacingLeft=30;fontColor=#147EBA;dashed=0;" vertex="1" parent="YHypOJyOhXT8dUaheZxc-0">
                    <mxGeometry x="480" y="280" width="240" height="160" as="geometry"/>
                </mxCell>
                <mxCell id="YHypOJyOhXT8dUaheZxc-31" value="" style="outlineConnect=0;dashed=0;verticalLabelPosition=bottom;verticalAlign=top;align=center;html=1;shape=mxgraph.aws3.rds_db_instance_standby_multi_az;fillColor=#2E73B8;gradientColor=none;" vertex="1" parent="YHypOJyOhXT8dUaheZxc-20">
                    <mxGeometry x="95.25" y="47" width="49.5" height="66" as="geometry"/>
                </mxCell>
                <mxCell id="YHypOJyOhXT8dUaheZxc-33" style="edgeStyle=none;html=1;exitX=0;exitY=0.79;exitDx=0;exitDy=0;exitPerimeter=0;" edge="1" parent="YHypOJyOhXT8dUaheZxc-0" source="YHypOJyOhXT8dUaheZxc-22" target="YHypOJyOhXT8dUaheZxc-4">
                    <mxGeometry relative="1" as="geometry"/>
                </mxCell>
                <mxCell id="YHypOJyOhXT8dUaheZxc-34" style="edgeStyle=none;html=1;exitX=1;exitY=0.79;exitDx=0;exitDy=0;exitPerimeter=0;" edge="1" parent="YHypOJyOhXT8dUaheZxc-0" source="YHypOJyOhXT8dUaheZxc-22" target="YHypOJyOhXT8dUaheZxc-19">
                    <mxGeometry relative="1" as="geometry"/>
                </mxCell>
                <mxCell id="YHypOJyOhXT8dUaheZxc-22" value="" style="outlineConnect=0;dashed=0;verticalLabelPosition=bottom;verticalAlign=top;align=center;html=1;shape=mxgraph.aws3.elastic_load_balancing;fillColor=#F58536;gradientColor=none;" vertex="1" parent="YHypOJyOhXT8dUaheZxc-0">
                    <mxGeometry x="441.75" y="20" width="38.25" height="46.5" as="geometry"/>
                </mxCell>
                <mxCell id="YHypOJyOhXT8dUaheZxc-25" value="ELB" style="text;html=1;align=center;verticalAlign=middle;resizable=0;points=[];autosize=1;strokeColor=none;fillColor=none;" vertex="1" parent="YHypOJyOhXT8dUaheZxc-0">
                    <mxGeometry x="435.88" y="66.5" width="50" height="30" as="geometry"/>
                </mxCell>
                <mxCell id="YHypOJyOhXT8dUaheZxc-27" value="Amazon Route 53" style="sketch=0;outlineConnect=0;fontColor=#232F3E;gradientColor=none;strokeColor=#ffffff;fillColor=#232F3E;dashed=0;verticalLabelPosition=middle;verticalAlign=bottom;align=center;html=1;whiteSpace=wrap;fontSize=10;fontStyle=1;spacing=3;shape=mxgraph.aws4.productIcon;prIcon=mxgraph.aws4.route_53;" vertex="1" parent="YHypOJyOhXT8dUaheZxc-0">
                    <mxGeometry x="432.87" y="-440" width="58.18" height="80" as="geometry"/>
                </mxCell>
                <mxCell id="YHypOJyOhXT8dUaheZxc-28" value="AWS WAF" style="sketch=0;outlineConnect=0;fontColor=#232F3E;gradientColor=none;strokeColor=#ffffff;fillColor=#232F3E;dashed=0;verticalLabelPosition=middle;verticalAlign=bottom;align=center;html=1;whiteSpace=wrap;fontSize=10;fontStyle=1;spacing=3;shape=mxgraph.aws4.productIcon;prIcon=mxgraph.aws4.waf;" vertex="1" parent="YHypOJyOhXT8dUaheZxc-0">
                    <mxGeometry x="432.87" y="-160" width="56" height="70" as="geometry"/>
                </mxCell>
                <mxCell id="YHypOJyOhXT8dUaheZxc-29" value="AWS Shield" style="sketch=0;outlineConnect=0;fontColor=#232F3E;gradientColor=none;strokeColor=#ffffff;fillColor=#232F3E;dashed=0;verticalLabelPosition=middle;verticalAlign=bottom;align=center;html=1;whiteSpace=wrap;fontSize=10;fontStyle=1;spacing=3;shape=mxgraph.aws4.productIcon;prIcon=mxgraph.aws4.shield;" vertex="1" parent="YHypOJyOhXT8dUaheZxc-0">
                    <mxGeometry x="428.88" y="-250" width="64" height="80" as="geometry"/>
                </mxCell>
                <mxCell id="YHypOJyOhXT8dUaheZxc-36" style="edgeStyle=none;html=1;" edge="1" parent="YHypOJyOhXT8dUaheZxc-0" source="YHypOJyOhXT8dUaheZxc-27" target="YHypOJyOhXT8dUaheZxc-8">
                    <mxGeometry relative="1" as="geometry"/>
                </mxCell>
                <mxCell id="YHypOJyOhXT8dUaheZxc-37" style="edgeStyle=orthogonalEdgeStyle;html=1;" edge="1" parent="YHypOJyOhXT8dUaheZxc-0" source="YHypOJyOhXT8dUaheZxc-4" target="uzlvoVt3xgEKSto2-Y47-7">
                    <mxGeometry relative="1" as="geometry"/>
                </mxCell>
                <mxCell id="YHypOJyOhXT8dUaheZxc-39" style="edgeStyle=orthogonalEdgeStyle;html=1;entryX=1;entryY=0.5;entryDx=0;entryDy=0;entryPerimeter=0;" edge="1" parent="YHypOJyOhXT8dUaheZxc-0" source="YHypOJyOhXT8dUaheZxc-19" target="YHypOJyOhXT8dUaheZxc-30">
                    <mxGeometry relative="1" as="geometry"/>
                </mxCell>
                <mxCell id="YHypOJyOhXT8dUaheZxc-40" style="edgeStyle=orthogonalEdgeStyle;html=1;" edge="1" parent="YHypOJyOhXT8dUaheZxc-0" source="YHypOJyOhXT8dUaheZxc-4" target="YHypOJyOhXT8dUaheZxc-13">
                    <mxGeometry relative="1" as="geometry">
                        <Array as="points">
                            <mxPoint x="400" y="170"/>
                            <mxPoint x="400" y="260"/>
                        </Array>
                    </mxGeometry>
                </mxCell>
                <mxCell id="YHypOJyOhXT8dUaheZxc-41" style="edgeStyle=orthogonalEdgeStyle;html=1;" edge="1" parent="YHypOJyOhXT8dUaheZxc-0" source="YHypOJyOhXT8dUaheZxc-19" target="YHypOJyOhXT8dUaheZxc-13">
                    <mxGeometry relative="1" as="geometry">
                        <Array as="points">
                            <mxPoint x="740" y="180"/>
                            <mxPoint x="740" y="259"/>
                        </Array>
                    </mxGeometry>
                </mxCell>
                <mxCell id="YHypOJyOhXT8dUaheZxc-42" value="VPC" style="sketch=0;outlineConnect=0;gradientColor=none;html=1;whiteSpace=wrap;fontSize=12;fontStyle=0;shape=mxgraph.aws4.group;grIcon=mxgraph.aws4.group_vpc;strokeColor=#B6BABF;fillColor=none;verticalAlign=top;align=left;spacingLeft=30;fontColor=#B6BABF;dashed=0;" vertex="1" parent="YHypOJyOhXT8dUaheZxc-0">
                    <mxGeometry x="160" y="-60" width="670" height="540" as="geometry"/>
                </mxCell>
                <mxCell id="YHypOJyOhXT8dUaheZxc-43" value="AWS Cloud" style="sketch=0;outlineConnect=0;gradientColor=none;html=1;whiteSpace=wrap;fontSize=12;fontStyle=0;shape=mxgraph.aws4.group;grIcon=mxgraph.aws4.group_aws_cloud;strokeColor=#858B94;fillColor=none;verticalAlign=top;align=left;spacingLeft=30;fontColor=#858B94;dashed=0;" vertex="1" parent="YHypOJyOhXT8dUaheZxc-0">
                    <mxGeometry x="70" y="-260" width="970" height="800" as="geometry"/>
                </mxCell>
            </root>
        </mxGraphModel>
    </diagram>
    <diagram id="ovyqmctxIa63BFqJPOJs" name="Simple">
        <mxGraphModel dx="896" dy="1795" grid="1" gridSize="10" guides="1" tooltips="1" connect="1" arrows="1" fold="1" page="1" pageScale="1" pageWidth="827" pageHeight="1169" math="0" shadow="0">
            <root>
                <mxCell id="0"/>
                <mxCell id="30" parent="0"/>
                <mxCell id="40" value="VPC" style="sketch=0;outlineConnect=0;gradientColor=none;html=1;whiteSpace=wrap;fontSize=12;fontStyle=0;shape=mxgraph.aws4.group;grIcon=mxgraph.aws4.group_vpc;strokeColor=#B6BABF;fillColor=none;verticalAlign=top;align=left;spacingLeft=30;fontColor=#B6BABF;dashed=0;" vertex="1" parent="30">
                    <mxGeometry x="120" width="400" height="460" as="geometry"/>
                </mxCell>
                <mxCell id="39" value="AWS Cloud" style="sketch=0;outlineConnect=0;gradientColor=none;html=1;whiteSpace=wrap;fontSize=12;fontStyle=0;shape=mxgraph.aws4.group;grIcon=mxgraph.aws4.group_aws_cloud;strokeColor=#858B94;fillColor=none;verticalAlign=top;align=left;spacingLeft=30;fontColor=#858B94;dashed=0;" vertex="1" parent="30">
                    <mxGeometry x="80" y="-60" width="720" height="540" as="geometry"/>
                </mxCell>
                <mxCell id="31" value="Public subnet" style="points=[[0,0],[0.25,0],[0.5,0],[0.75,0],[1,0],[1,0.25],[1,0.5],[1,0.75],[1,1],[0.75,1],[0.5,1],[0.25,1],[0,1],[0,0.75],[0,0.5],[0,0.25]];outlineConnect=0;gradientColor=none;html=1;whiteSpace=wrap;fontSize=12;fontStyle=0;container=1;pointerEvents=0;collapsible=0;recursiveResize=0;shape=mxgraph.aws4.group;grIcon=mxgraph.aws4.group_security_group;grStroke=0;strokeColor=#248814;fillColor=#E9F3E6;verticalAlign=top;align=left;spacingLeft=30;fontColor=#248814;dashed=0;" vertex="1" parent="30">
                    <mxGeometry x="200" y="80" width="240" height="160" as="geometry"/>
                </mxCell>
                <mxCell id="33" value="Amazon EC2" style="sketch=0;outlineConnect=0;fontColor=#232F3E;gradientColor=none;strokeColor=#ffffff;fillColor=#232F3E;dashed=0;verticalLabelPosition=middle;verticalAlign=bottom;align=center;html=1;whiteSpace=wrap;fontSize=10;fontStyle=1;spacing=3;shape=mxgraph.aws4.productIcon;prIcon=mxgraph.aws4.ec2;" vertex="1" parent="31">
                    <mxGeometry x="80" y="40" width="80" height="100" as="geometry"/>
                </mxCell>
                <mxCell id="32" value="Private subnet" style="points=[[0,0],[0.25,0],[0.5,0],[0.75,0],[1,0],[1,0.25],[1,0.5],[1,0.75],[1,1],[0.75,1],[0.5,1],[0.25,1],[0,1],[0,0.75],[0,0.5],[0,0.25]];outlineConnect=0;gradientColor=none;html=1;whiteSpace=wrap;fontSize=12;fontStyle=0;container=1;pointerEvents=0;collapsible=0;recursiveResize=0;shape=mxgraph.aws4.group;grIcon=mxgraph.aws4.group_security_group;grStroke=0;strokeColor=#147EBA;fillColor=#E6F2F8;verticalAlign=top;align=left;spacingLeft=30;fontColor=#147EBA;dashed=0;" vertex="1" parent="30">
                    <mxGeometry x="200" y="280" width="240" height="160" as="geometry"/>
                </mxCell>
                <mxCell id="34" value="Amazon RDS" style="sketch=0;outlineConnect=0;fontColor=#232F3E;gradientColor=none;strokeColor=#ffffff;fillColor=#232F3E;dashed=0;verticalLabelPosition=middle;verticalAlign=bottom;align=center;html=1;whiteSpace=wrap;fontSize=10;fontStyle=1;spacing=3;shape=mxgraph.aws4.productIcon;prIcon=mxgraph.aws4.rds;" vertex="1" parent="32">
                    <mxGeometry x="80" y="40" width="80" height="100" as="geometry"/>
                </mxCell>
                <mxCell id="48" style="edgeStyle=elbowEdgeStyle;html=1;" edge="1" parent="30" source="35" target="33">
                    <mxGeometry relative="1" as="geometry"/>
                </mxCell>
                <mxCell id="35" value="Internet&#10;gateway" style="sketch=0;outlineConnect=0;fontColor=#232F3E;gradientColor=none;strokeColor=#232F3E;fillColor=#ffffff;dashed=0;verticalLabelPosition=bottom;verticalAlign=top;align=center;html=1;fontSize=12;fontStyle=0;aspect=fixed;shape=mxgraph.aws4.resourceIcon;resIcon=mxgraph.aws4.internet_gateway;" vertex="1" parent="30">
                    <mxGeometry x="290" y="-30" width="60" height="60" as="geometry"/>
                </mxCell>
                <mxCell id="36" value="Amazon S3" style="sketch=0;outlineConnect=0;fontColor=#232F3E;gradientColor=none;strokeColor=#ffffff;fillColor=#232F3E;dashed=0;verticalLabelPosition=middle;verticalAlign=bottom;align=center;html=1;whiteSpace=wrap;fontSize=10;fontStyle=1;spacing=3;shape=mxgraph.aws4.productIcon;prIcon=mxgraph.aws4.s3;" vertex="1" parent="30">
                    <mxGeometry x="610" y="210" width="80" height="100" as="geometry"/>
                </mxCell>
                <mxCell id="49" style="edgeStyle=elbowEdgeStyle;html=1;" edge="1" parent="30" source="37" target="35">
                    <mxGeometry relative="1" as="geometry"/>
                </mxCell>
                <mxCell id="37" value="Amazon Cloudfront" style="sketch=0;outlineConnect=0;fontColor=#232F3E;gradientColor=none;strokeColor=#ffffff;fillColor=#232F3E;dashed=0;verticalLabelPosition=middle;verticalAlign=bottom;align=center;html=1;whiteSpace=wrap;fontSize=10;fontStyle=1;spacing=3;shape=mxgraph.aws4.productIcon;prIcon=mxgraph.aws4.cloudfront;" vertex="1" parent="30">
                    <mxGeometry x="280" y="-200" width="80" height="110" as="geometry"/>
                </mxCell>
                <mxCell id="47" style="edgeStyle=elbowEdgeStyle;html=1;" edge="1" parent="30" source="38" target="36">
                    <mxGeometry relative="1" as="geometry"/>
                </mxCell>
                <mxCell id="38" value="" style="sketch=0;outlineConnect=0;fontColor=#232F3E;gradientColor=none;fillColor=#4D27AA;strokeColor=none;dashed=0;verticalLabelPosition=bottom;verticalAlign=top;align=center;html=1;fontSize=12;fontStyle=0;aspect=fixed;pointerEvents=1;shape=mxgraph.aws4.endpoints;" vertex="1" parent="30">
                    <mxGeometry x="500" y="230" width="40" height="40" as="geometry"/>
                </mxCell>
                <mxCell id="45" value="" style="edgeStyle=elbowEdgeStyle;html=1;" edge="1" parent="30" source="33" target="34">
                    <mxGeometry relative="1" as="geometry"/>
                </mxCell>
                <mxCell id="46" style="edgeStyle=elbowEdgeStyle;html=1;" edge="1" parent="30" source="33" target="38">
                    <mxGeometry relative="1" as="geometry"/>
                </mxCell>
                <mxCell id="51" style="edgeStyle=elbowEdgeStyle;html=1;" edge="1" parent="30" source="50" target="37">
                    <mxGeometry relative="1" as="geometry"/>
                </mxCell>
                <mxCell id="50" value="" style="aspect=fixed;perimeter=ellipsePerimeter;html=1;align=center;shadow=0;dashed=0;spacingTop=3;image;image=img/lib/active_directory/internet_cloud.svg;" vertex="1" parent="30">
                    <mxGeometry x="272.38" y="-320" width="95.24" height="60" as="geometry"/>
                </mxCell>
            </root>
        </mxGraphModel>
    </diagram>
</mxfile>